<svg version="1.1" id="Layer_1" xmlns="http://www.w3.org/2000/svg" xmlns:xlink="http://www.w3.org/1999/xlink" x="0px" y="0px"
	 width="100%" viewBox="0 0 1146 364" enable-background="new 0 0 1146 364" xml:space="preserve">
<path fill="#010101" opacity="1.000000" stroke="none" 
	d="
M912.000000,365.000000 
	C608.000000,365.000000 304.500000,365.000000 1.000000,365.000000 
	C1.000000,243.666672 1.000000,122.333336 1.000000,1.000000 
	C383.000000,1.000000 765.000000,1.000000 1147.000000,1.000000 
	C1147.000000,122.333336 1147.000000,243.666672 1147.000000,365.000000 
	C1068.833374,365.000000 990.666687,365.000000 912.000000,365.000000 
M662.006775,278.760559 
	C662.483215,280.408600 662.959656,282.056641 663.436096,283.704681 
	C662.776489,281.911530 667.240112,277.944824 662.074646,277.303162 
	C663.566956,275.086121 666.084778,273.130066 664.534363,269.720001 
	C666.191895,269.048431 667.849426,268.376862 670.321838,267.375092 
	C669.096252,266.019287 668.064453,264.877838 667.173767,263.061981 
	C667.739197,262.355957 668.304626,261.649933 669.603394,261.050873 
	C671.308289,260.716766 673.776917,260.953308 674.547913,259.921417 
	C675.867432,258.155396 676.124329,255.595413 676.043152,252.759491 
	C676.183960,252.459854 676.324707,252.160233 677.024353,252.382202 
	C677.751648,252.234589 678.478943,252.086975 679.206238,251.939362 
	C679.144653,251.662643 679.083008,251.385925 679.021423,251.109222 
	C678.128418,251.317123 677.235413,251.525024 676.048828,250.911591 
	C688.514954,235.189743 700.981079,219.467911 714.232910,203.901657 
	C716.284668,203.748322 718.336365,203.595001 720.388123,203.441666 
	C719.959778,201.504227 719.530945,199.566879 719.104126,197.629105 
	C719.068726,197.468307 719.047424,197.304413 719.527710,196.762375 
	C720.215332,195.787872 720.902954,194.813385 722.196106,194.079941 
	C724.153198,194.768570 726.110229,195.457199 728.060242,196.143356 
	C728.356812,193.499130 728.661926,190.778854 729.052490,187.296616 
	C729.247498,187.454941 728.483582,186.834595 727.926453,185.614700 
	C728.758118,184.659393 729.589722,183.704071 731.197754,182.856415 
	C737.828491,180.869766 740.962280,175.225403 744.341919,169.964767 
	C744.925049,169.057037 744.100220,167.244736 744.113281,165.206100 
	C754.071350,151.469025 764.029419,137.731949 774.687683,123.894531 
	C775.117493,122.912575 775.547241,121.930618 776.031433,120.340416 
	C776.605164,119.529724 777.178955,118.719025 778.323975,118.233208 
	C779.054749,118.603134 779.785522,118.973053 780.516296,119.343002 
	C780.004578,118.212410 779.492859,117.081818 779.139465,115.273071 
	C781.853271,110.415504 784.666016,105.610146 787.263489,100.691139 
	C797.506104,81.293945 805.273865,61.003311 808.432495,39.194847 
	C809.534546,31.585402 809.794373,23.853966 810.431396,16.266405 
	C809.089050,16.084442 808.924805,16.042742 808.760498,16.042641 
	C732.781433,15.996462 656.802307,15.933458 580.823425,16.044876 
	C579.237671,16.047203 576.873779,17.709127 576.188843,19.201017 
	C567.102539,38.990257 557.822205,58.710732 549.532715,78.836555 
	C545.663879,88.229668 543.827209,98.459763 541.165588,107.966843 
	C542.553284,108.816269 542.830688,109.134148 543.109924,109.135788 
	C558.099670,109.224213 573.090149,109.346161 588.078186,109.209579 
	C589.035156,109.200867 590.568909,107.292755 590.830383,106.055946 
	C594.124634,90.477951 601.444275,76.770943 609.957520,63.542503 
	C611.713135,60.814465 613.563843,59.868652 616.786377,59.880741 
	C650.444397,60.006954 684.103149,59.957172 717.761658,59.970047 
	C718.989929,59.970516 720.218201,60.113834 721.520203,60.195187 
	C716.515320,80.173485 686.189026,128.640793 664.848938,149.843796 
	C659.754089,149.449036 654.919128,155.700592 655.890015,161.807159 
	C653.609558,164.433777 651.294983,167.031693 649.054077,169.691620 
	C634.455872,187.019241 618.962646,203.592316 604.910461,220.975616 
	C603.517151,221.008377 601.514099,220.475006 600.852661,221.187347 
	C599.296387,222.863434 598.281677,225.089920 597.326843,227.218811 
	C597.203430,227.494080 598.729675,228.509232 599.258423,229.773346 
	C598.366333,230.933960 597.474304,232.094574 595.755310,233.184845 
	C595.227295,234.256851 594.699341,235.328842 594.089966,236.918442 
	C593.732422,237.281708 593.374817,237.644958 592.361938,237.721649 
	C587.981873,237.215927 585.476074,241.383194 587.013550,246.995834 
	C564.357178,280.659058 546.630005,316.710968 533.917175,355.349670 
	C564.200195,355.349670 593.944458,355.349670 623.793823,355.349670 
	C627.632874,336.493713 634.262268,318.970734 643.097595,302.310089 
	C647.327637,294.333405 652.163269,286.677887 657.497681,278.904480 
	C659.000916,278.600616 660.504089,278.296722 662.006775,278.760559 
M886.016541,176.197357 
	C895.223328,161.076828 904.430115,145.956299 914.382080,130.996918 
	C916.084778,131.469833 917.787476,131.942734 919.490173,132.415634 
	C919.664307,130.629150 920.000549,128.838242 919.951965,127.057838 
	C919.922791,125.987427 919.293701,124.933372 919.160522,123.195839 
	C921.071838,122.215813 922.983154,121.235786 924.926697,121.027878 
	C925.291504,122.044090 925.656250,123.060303 926.021057,124.076515 
	C926.480347,124.064163 926.939575,124.051811 927.398865,124.039467 
	C927.936951,122.401184 928.475037,120.762901 929.817505,118.842453 
	C934.457275,118.509491 939.114990,117.742073 943.733032,117.933708 
	C953.443298,118.336678 968.296204,107.186852 970.852966,98.172310 
	C959.473206,98.172310 948.177429,98.172333 936.881714,98.172302 
	C895.757751,98.172195 854.633728,98.145386 813.510071,98.259567 
	C811.667969,98.264671 808.893860,99.007240 808.132568,100.321114 
	C799.544189,115.141960 795.696472,130.657379 804.652344,146.637039 
	C809.783752,155.792969 816.053711,164.310883 821.811096,173.116013 
	C822.257080,172.916809 822.703125,172.717621 823.149109,172.518417 
	C822.920166,170.153214 822.639404,167.791672 822.471863,165.422134 
	C821.945129,157.971130 820.840576,150.494232 821.114258,143.069931 
	C821.473206,133.332504 826.677917,128.936050 836.180786,128.931107 
	C849.999756,128.923935 863.818726,128.938110 877.637634,128.972885 
	C878.862793,128.975967 880.087402,129.197495 881.815002,129.366837 
	C879.398193,134.690872 877.323486,139.552948 875.009705,144.298462 
	C869.915161,154.747482 864.297180,164.961884 859.651611,175.603287 
	C855.339905,185.479691 847.192078,190.117783 837.846008,193.160522 
	C833.725708,190.035934 832.244385,194.077835 829.240295,196.449722 
	C826.261841,196.703033 823.283875,197.168930 820.304871,197.176117 
	C795.646973,197.235611 770.988831,197.192429 746.330994,197.252762 
	C744.774353,197.256577 742.596436,197.327560 741.766724,198.285141 
	C737.141174,203.622940 732.842346,209.243912 728.380920,214.831833 
	C729.029358,215.195618 729.295715,215.475342 729.563721,215.476929 
	C765.374023,215.688995 801.184570,215.867630 836.994873,216.083725 
	C844.715637,216.130341 851.698242,213.863602 858.277771,209.926453 
	C867.549072,204.378433 873.690918,195.918625 880.150146,188.089722 
	C882.696960,187.838882 886.406128,188.486404 887.479980,187.097092 
	C888.672546,185.554199 887.562866,182.140625 887.242737,179.568008 
	C887.126831,178.636307 886.396118,177.781067 886.016541,176.197357 
M352.075897,58.665771 
	C353.503723,58.426712 354.931366,57.980213 356.359406,57.979000 
	C390.313049,57.950172 424.266754,57.966827 458.220428,57.990490 
	C459.277191,57.991226 460.333862,58.154697 461.940552,58.287891 
	C448.436554,92.253487 428.646759,121.498016 404.827728,147.793610 
	C401.951477,149.331436 397.017731,150.473633 396.629974,152.489975 
	C395.838104,156.608292 393.268280,158.467880 391.002991,161.239059 
	C387.520691,165.499039 385.050903,170.586685 381.919800,175.935608 
	C372.449036,187.104126 362.823181,198.145370 353.535919,209.464432 
	C322.908569,246.792404 298.441193,287.760712 281.193726,332.936371 
	C278.620819,339.675446 276.292328,346.507812 273.778198,353.498840 
	C304.179749,353.498840 333.809998,353.498840 363.534363,353.498840 
	C363.998810,351.886780 364.499695,350.486603 364.802979,349.044861 
	C369.268860,327.815277 378.063110,308.309937 388.811005,289.649475 
	C404.646240,262.156372 424.213776,237.322235 444.126740,212.738861 
	C472.766449,177.382004 502.584137,142.886765 525.724060,103.131470 
	C526.224121,104.808044 526.724121,106.484612 527.224182,108.161186 
	C527.738098,108.030952 528.252014,107.900719 528.765991,107.770477 
	C528.125244,105.164230 527.484558,102.557976 526.881287,99.343506 
	C527.390320,98.480545 527.899292,97.617584 529.343506,96.881760 
	C531.090088,96.881760 532.836670,96.881760 534.893188,96.881760 
	C534.472290,93.744812 536.922668,90.207306 531.952454,89.231194 
	C542.982361,65.492561 550.223267,40.860508 550.010193,14.107630 
	C548.663818,14.035604 547.705933,13.939510 546.748047,13.939507 
	C471.654266,13.939188 396.560455,13.924588 321.466980,14.079988 
	C319.607635,14.083837 317.752258,15.976498 315.334381,17.030813 
	C315.153381,17.670666 314.972382,18.310518 314.787567,19.530832 
	C314.470245,20.001896 314.152924,20.472960 313.089600,20.975147 
	C305.431702,23.186756 302.677399,29.459415 306.263336,36.859993 
	C296.236420,59.420444 285.168152,81.623749 281.759583,107.299057 
	C297.751282,107.299057 313.183777,107.330002 328.614990,107.204041 
	C329.355408,107.197990 330.589630,105.898766 330.743591,105.047913 
	C333.260101,91.138420 339.366333,78.748772 347.348175,66.924187 
	C348.916931,67.490227 350.485687,68.056267 352.822601,68.899475 
	C352.430328,65.508987 352.076324,62.449444 352.075897,58.665771 
M83.257545,61.997467 
	C82.429359,61.982784 81.584572,62.069660 80.775581,61.937485 
	C73.801483,60.798084 73.858253,60.793636 72.948288,67.602509 
	C72.740150,69.159912 72.010933,70.647675 71.422394,72.475357 
	C72.564125,72.745178 73.630714,72.997238 74.419647,73.891167 
	C73.340942,75.078270 72.262238,76.265381 70.912148,76.747780 
	C69.999146,75.178345 69.086143,73.608902 68.173141,72.039467 
	C67.588203,72.146973 67.003258,72.254486 66.418312,72.361992 
	C66.261368,76.534172 66.104424,80.706345 65.715363,85.526367 
	C33.126717,134.027847 14.007402,186.726852 14.869646,245.908997 
	C15.339737,278.174774 23.891157,307.493439 43.822586,333.754730 
	C43.154156,335.338043 42.485725,336.921356 41.817287,338.504669 
	C43.525177,338.718933 45.228527,338.996185 46.942955,339.119598 
	C47.740948,339.177063 48.560432,338.936005 49.994480,339.029938 
	C53.392246,341.696472 56.603992,344.651428 60.218010,346.982727 
	C83.443520,361.964905 108.495506,362.167358 134.193680,355.509338 
	C150.666840,351.241394 165.044678,342.611908 179.380951,333.271667 
	C183.624954,335.182373 185.719177,331.840515 188.274353,329.632874 
	C188.864716,330.614746 189.447739,331.584412 190.727737,333.713257 
	C191.226471,328.869659 191.586548,325.372559 192.184006,321.237640 
	C193.367020,320.185730 194.550034,319.133850 195.864273,318.925842 
	C196.443085,320.488037 197.021881,322.050232 197.375076,323.003479 
	C199.431686,320.019501 201.553406,317.326843 203.201797,314.370270 
	C203.918442,313.084900 203.662354,311.257233 204.064758,309.068542 
	C205.642868,307.350677 207.220978,305.632812 209.520172,304.060242 
	C211.422943,304.999023 213.325714,305.937836 215.228470,306.876648 
	C215.740860,306.509766 216.253250,306.142914 216.765625,305.776031 
	C215.742401,303.149963 214.719162,300.523865 213.915268,297.237793 
	C223.549057,281.794800 233.182831,266.351807 243.315109,251.190048 
	C246.928970,253.245819 246.579971,249.042557 248.266891,248.054871 
	C247.522369,246.953186 246.777847,245.851486 246.109756,243.965225 
	C248.893753,237.218246 251.908920,230.556198 254.423981,223.710403 
	C269.965088,181.408966 277.452698,138.156845 270.130890,92.806236 
	C270.858337,88.850571 271.585815,84.894905 272.279510,81.122871 
	C269.872986,81.555183 268.300568,81.837662 266.121185,81.652611 
	C260.853455,59.068661 249.432159,40.260437 231.287933,25.761456 
	C209.088242,8.021748 184.226440,6.251041 157.765656,13.731740 
	C143.044693,17.893484 129.818680,24.983213 117.014603,32.370636 
	C116.349892,31.416740 115.685188,30.462847 115.020477,29.508951 
	C114.715996,29.702475 114.411514,29.895996 114.107033,30.089520 
	C114.447906,31.490547 114.788780,32.891575 114.749825,34.890587 
	C110.694382,37.391560 106.593491,39.274952 103.281540,43.415222 
	C97.758751,50.319244 90.588509,55.905392 83.257545,61.997467 
M831.239624,30.703455 
	C827.524109,47.348526 823.808655,63.993599 820.035339,80.897873 
	C819.422974,80.589371 819.692993,80.844551 819.963013,80.844612 
	C875.108643,80.857460 930.254333,80.871628 985.399597,80.730476 
	C986.708008,80.727127 988.512451,79.264061 989.238037,77.996666 
	C994.494629,68.814507 1002.197876,64.078941 1012.851929,64.096107 
	C1036.343750,64.133957 1059.872437,63.311325 1083.311523,64.419685 
	C1094.841919,64.964920 1101.732422,60.327568 1107.461182,51.682293 
	C1108.012329,50.850655 1108.656738,50.079571 1109.189209,49.237011 
	C1115.566650,39.145348 1119.578003,28.318150 1119.888672,16.224108 
	C1024.015503,16.224108 928.624268,16.224108 833.302063,16.224108 
	C832.635254,20.966551 832.011292,25.404055 831.239624,30.703455 
M734.883057,188.395477 
	C734.705261,187.364044 734.527466,186.332611 734.349670,185.301178 
	C733.658325,185.536194 732.967041,185.771210 732.275696,186.006210 
	C732.937866,186.899063 733.600037,187.791916 734.883057,188.395477 
M826.649719,194.934097 
	C827.231628,194.589417 827.813538,194.244751 828.395447,193.900040 
	C827.895996,193.631729 827.396606,193.363419 826.897156,193.095123 
	C826.599121,193.658203 826.301086,194.221283 826.649719,194.934097 
M829.445374,190.709961 
	C829.711914,190.989105 829.975891,191.270996 830.258667,191.532578 
	C830.266357,191.539688 830.476868,191.327469 830.592834,191.217545 
	C830.325806,190.938293 830.058777,190.659042 829.445374,190.709961 
M402.482025,144.596512 
	C402.482025,144.596512 402.411255,144.477554 402.482025,144.596512 
M401.485718,142.584335 
	C401.485718,142.584335 401.427185,142.482269 401.485718,142.584335 
M112.417557,32.480465 
	C112.417557,32.480465 112.521591,32.418510 112.417557,32.480465 
M112.421272,29.487747 
	C112.421272,29.487747 112.522507,29.428850 112.421272,29.487747 
z"/>
<path fill="#FBFBFB" opacity="1.000000" stroke="none" 
	d="
M208.799072,303.914917 
	C207.220978,305.632812 205.642868,307.350677 203.654053,309.527069 
	C200.739929,312.684387 198.236496,315.383179 195.733063,318.081970 
	C194.550034,319.133850 193.367020,320.185730 191.744843,321.669342 
	C187.146515,325.705780 182.987320,329.310547 178.828125,332.915314 
	C165.044678,342.611908 150.666840,351.241394 134.193680,355.509338 
	C108.495506,362.167358 83.443520,361.964905 60.218010,346.982727 
	C56.603992,344.651428 53.392246,341.696472 49.558372,338.617096 
	C47.402214,336.501190 45.682167,334.798126 43.962116,333.095093 
	C23.891157,307.493439 15.339737,278.174774 14.869646,245.908997 
	C14.007402,186.726852 33.126717,134.027847 66.127632,85.058090 
	C68.087776,82.210709 69.635658,79.831596 71.183540,77.452492 
	C72.262238,76.265381 73.340942,75.078270 74.810501,73.391373 
	C78.171539,69.276527 81.141724,65.661469 84.111900,62.046410 
	C90.588509,55.905392 97.758751,50.319244 103.281540,43.415222 
	C106.593491,39.274952 110.694382,37.391560 115.232956,34.540306 
	C116.150856,33.820213 116.585632,33.450401 117.020409,33.080589 
	C129.818680,24.983213 143.044693,17.893484 157.765656,13.731740 
	C184.226440,6.251041 209.088242,8.021748 231.287933,25.761456 
	C249.432159,40.260437 260.853455,59.068661 266.508026,82.275925 
	C267.734924,86.311630 268.574982,89.724037 269.415039,93.136436 
	C277.452698,138.156845 269.965088,181.408966 254.423981,223.710403 
	C251.908920,230.556198 248.893753,237.218246 245.824005,244.534271 
	C244.631042,247.038467 243.723846,248.973648 242.816620,250.908813 
	C233.182831,266.351807 223.549057,281.794800 213.512680,297.703583 
	C211.673080,300.084564 210.236084,301.999725 208.799072,303.914917 
M120.625290,297.832367 
	C121.513947,296.528992 122.402603,295.225616 123.895576,293.421417 
	C126.404663,290.001373 129.001068,286.641602 131.409302,283.152008 
	C154.405258,249.829956 172.223816,213.848633 185.978348,175.845474 
	C197.466614,144.103958 205.885696,111.664558 206.390808,77.622917 
	C206.526962,68.447014 206.099976,59.312901 202.124298,50.772297 
	C198.186020,42.312031 192.653503,40.101448 184.443375,44.574936 
	C179.988281,47.002399 175.779694,50.258007 172.219910,53.885807 
	C159.053375,67.303947 149.469437,83.308273 140.562134,99.690567 
	C118.592934,140.096252 101.486496,182.567230 87.681770,226.376083 
	C81.133827,247.155762 74.810234,268.070404 73.608238,290.022583 
	C73.079475,299.679443 73.542671,309.390533 78.414749,318.185272 
	C81.477417,323.713745 86.262115,325.808777 91.840858,322.903137 
	C97.499641,319.955841 102.753204,316.014771 107.634918,311.863037 
	C111.219696,308.814270 113.918274,304.723511 117.701653,301.156952 
	C118.082375,300.609192 118.463097,300.061462 119.309959,299.312897 
	C119.553169,298.879578 119.796379,298.446259 120.625290,297.832367 
z"/>
<path fill="#FBFBFB" opacity="1.000000" stroke="none" 
	d="
M713.447144,203.746048 
	C700.981079,219.467911 688.514954,235.189743 676.246155,251.356430 
	C676.443481,251.801270 676.465515,251.860596 676.465515,251.860596 
	C676.324707,252.160233 676.183960,252.459854 676.352539,253.115799 
	C676.661865,253.472107 676.751343,253.645157 676.595459,253.157227 
	C675.676697,253.024780 674.913818,253.380280 673.879639,253.879883 
	C672.028931,256.330627 670.449524,258.637268 668.870117,260.943909 
	C668.304626,261.649933 667.739197,262.355957 666.850281,263.557007 
	C665.261841,265.999298 663.996826,267.946503 662.455566,270.072205 
	C660.361145,273.126129 658.542908,276.001526 656.724670,278.876892 
	C652.163269,286.677887 647.327637,294.333405 643.097595,302.310089 
	C634.262268,318.970734 627.632874,336.493713 623.793823,355.349670 
	C593.944458,355.349670 564.200195,355.349670 533.917175,355.349670 
	C546.630005,316.710968 564.357178,280.659058 587.399780,246.504669 
	C589.529785,243.345062 591.273499,240.676636 593.017212,238.008209 
	C593.374817,237.644958 593.732422,237.281708 594.429199,236.500397 
	C595.373047,235.139954 595.977600,234.197556 596.582214,233.255173 
	C597.474304,232.094574 598.366333,230.933960 599.642456,229.314667 
	C601.762695,226.455292 603.498840,224.054626 605.235046,221.653946 
	C618.962646,203.592316 634.455872,187.019241 649.054077,169.691620 
	C651.294983,167.031693 653.609558,164.433777 656.297607,161.349823 
	C659.533875,157.428009 662.362671,153.963531 665.191406,150.499054 
	C686.189026,128.640793 716.515320,80.173485 721.520203,60.195187 
	C720.218201,60.113834 718.989929,59.970516 717.761658,59.970047 
	C684.103149,59.957172 650.444397,60.006954 616.786377,59.880741 
	C613.563843,59.868652 611.713135,60.814465 609.957520,63.542503 
	C601.444275,76.770943 594.124634,90.477951 590.830383,106.055946 
	C590.568909,107.292755 589.035156,109.200867 588.078186,109.209579 
	C573.090149,109.346161 558.099670,109.224213 543.109924,109.135788 
	C542.830688,109.134148 542.553284,108.816269 541.165588,107.966843 
	C543.827209,98.459763 545.663879,88.229668 549.532715,78.836555 
	C557.822205,58.710732 567.102539,38.990257 576.188843,19.201017 
	C576.873779,17.709127 579.237671,16.047203 580.823425,16.044876 
	C656.802307,15.933458 732.781433,15.996462 808.760498,16.042641 
	C808.924805,16.042742 809.089050,16.084442 810.431396,16.266405 
	C809.794373,23.853966 809.534546,31.585402 808.432495,39.194847 
	C805.273865,61.003311 797.506104,81.293945 787.263489,100.691139 
	C784.666016,105.610146 781.853271,110.415504 778.789795,115.758560 
	C778.210938,116.798790 777.981812,117.353546 777.752686,117.908310 
	C777.178955,118.719025 776.605164,119.529724 775.728149,120.801971 
	C774.945740,122.173981 774.466614,123.084435 773.987488,123.994873 
	C764.029419,137.731949 754.071350,151.469025 743.725037,165.694748 
	C739.031677,171.705185 734.726501,177.226974 730.421387,182.748749 
	C729.589722,183.704071 728.758118,184.659393 727.544556,186.027298 
	C725.305298,188.906219 723.447937,191.372543 721.590576,193.838882 
	C720.902954,194.813385 720.215332,195.787872 718.942017,196.994385 
	C716.719971,199.399597 715.083557,201.572815 713.447144,203.746048 
z"/>
<path fill="#FBFBFB" opacity="1.000000" stroke="none" 
	d="
M346.658813,66.843544 
	C339.366333,78.748772 333.260101,91.138420 330.743591,105.047913 
	C330.589630,105.898766 329.355408,107.197990 328.614990,107.204041 
	C313.183777,107.330002 297.751282,107.299057 281.759583,107.299057 
	C285.168152,81.623749 296.236420,59.420444 306.593628,36.275658 
	C309.227783,30.775555 311.531708,25.859791 313.835602,20.944025 
	C314.152924,20.472960 314.470245,20.001896 315.026611,19.060188 
	C315.475464,18.055777 315.685242,17.522007 315.895020,16.988232 
	C317.752258,15.976498 319.607635,14.083837 321.466980,14.079988 
	C396.560455,13.924588 471.654266,13.939188 546.748047,13.939507 
	C547.705933,13.939510 548.663818,14.035604 550.010193,14.107630 
	C550.223267,40.860508 542.982361,65.492561 531.620544,89.787621 
	C530.328552,92.480904 529.368408,94.617760 528.408325,96.754616 
	C527.899292,97.617584 527.390320,98.480545 526.600708,99.806061 
	C525.915649,101.183182 525.511108,102.097740 525.106506,103.012299 
	C502.584137,142.886765 472.766449,177.382004 444.126740,212.738861 
	C424.213776,237.322235 404.646240,262.156372 388.811005,289.649475 
	C378.063110,308.309937 369.268860,327.815277 364.802979,349.044861 
	C364.499695,350.486603 363.998810,351.886780 363.534363,353.498840 
	C333.809998,353.498840 304.179749,353.498840 273.778198,353.498840 
	C276.292328,346.507812 278.620819,339.675446 281.193726,332.936371 
	C298.441193,287.760712 322.908569,246.792404 353.535919,209.464432 
	C362.823181,198.145370 372.449036,187.104126 382.349243,175.488159 
	C390.243713,166.172882 397.708771,157.305054 405.173828,148.437225 
	C428.646759,121.498016 448.436554,92.253487 461.940552,58.287891 
	C460.333862,58.154697 459.277191,57.991226 458.220428,57.990490 
	C424.266754,57.966827 390.313049,57.950172 356.359406,57.979000 
	C354.931366,57.980213 353.503723,58.426712 351.605316,59.222172 
	C349.642761,62.133564 348.150787,64.488556 346.658813,66.843544 
z"/>
<path fill="#FBFBFB" opacity="1.000000" stroke="none" 
	d="
M831.313477,30.272507 
	C832.011292,25.404055 832.635254,20.966551 833.302063,16.224108 
	C928.624268,16.224108 1024.015503,16.224108 1119.888672,16.224108 
	C1119.578003,28.318150 1115.566650,39.145348 1109.189209,49.237011 
	C1108.656738,50.079571 1108.012329,50.850655 1107.461182,51.682293 
	C1101.732422,60.327568 1094.841919,64.964920 1083.311523,64.419685 
	C1059.872437,63.311325 1036.343750,64.133957 1012.851929,64.096107 
	C1002.197876,64.078941 994.494629,68.814507 989.238037,77.996666 
	C988.512451,79.264061 986.708008,80.727127 985.399597,80.730476 
	C930.254333,80.871628 875.108643,80.857460 819.963013,80.844612 
	C819.692993,80.844551 819.422974,80.589371 820.035339,80.897873 
	C823.808655,63.993599 827.524109,47.348526 831.313477,30.272507 
z"/>
<path fill="#F7F7F7" opacity="1.000000" stroke="none" 
	d="
M924.894470,120.255753 
	C922.983154,121.235786 921.071838,122.215813 918.754761,123.701340 
	C916.778320,126.416496 915.207581,128.626144 913.636902,130.835785 
	C904.430115,145.956299 895.223328,161.076828 885.698608,176.735687 
	C883.498596,180.628479 881.616577,183.982925 879.734558,187.337372 
	C873.690918,195.918625 867.549072,204.378433 858.277771,209.926453 
	C851.698242,213.863602 844.715637,216.130341 836.994873,216.083725 
	C801.184570,215.867630 765.374023,215.688995 729.563721,215.476929 
	C729.295715,215.475342 729.029358,215.195618 728.380920,214.831833 
	C732.842346,209.243912 737.141174,203.622940 741.766724,198.285141 
	C742.596436,197.327560 744.774353,197.256577 746.330994,197.252762 
	C770.988831,197.192429 795.646973,197.235611 820.304871,197.176117 
	C823.283875,197.168930 826.261841,196.703033 830.008118,196.293716 
	C833.187256,195.378662 835.598511,194.619598 838.009827,193.860535 
	C847.192078,190.117783 855.339905,185.479691 859.651611,175.603287 
	C864.297180,164.961884 869.915161,154.747482 875.009705,144.298462 
	C877.323486,139.552948 879.398193,134.690872 881.815002,129.366837 
	C880.087402,129.197495 878.862793,128.975967 877.637634,128.972885 
	C863.818726,128.938110 849.999756,128.923935 836.180786,128.931107 
	C826.677917,128.936050 821.473206,133.332504 821.114258,143.069931 
	C820.840576,150.494232 821.945129,157.971130 822.471863,165.422134 
	C822.639404,167.791672 822.920166,170.153214 823.149109,172.518417 
	C822.703125,172.717621 822.257080,172.916809 821.811096,173.116013 
	C816.053711,164.310883 809.783752,155.792969 804.652344,146.637039 
	C795.696472,130.657379 799.544189,115.141960 808.132568,100.321114 
	C808.893860,99.007240 811.667969,98.264671 813.510071,98.259567 
	C854.633728,98.145386 895.757751,98.172195 936.881714,98.172302 
	C948.177429,98.172333 959.473206,98.172310 970.852966,98.172310 
	C968.296204,107.186852 953.443298,118.336678 943.733032,117.933708 
	C939.114990,117.742073 934.457275,118.509491 929.104187,118.945877 
	C927.225403,119.451439 926.059937,119.853592 924.894470,120.255753 
z"/>
<path fill="#161616" opacity="1.000000" stroke="none" 
	d="
M405.000793,148.115417 
	C397.708771,157.305054 390.243713,166.172882 382.465088,175.181915 
	C385.050903,170.586685 387.520691,165.499039 391.002991,161.239059 
	C393.268280,158.467880 395.838104,156.608292 396.629974,152.489975 
	C397.017731,150.473633 401.951477,149.331436 405.000793,148.115417 
z"/>
<path fill="#101010" opacity="1.000000" stroke="none" 
	d="
M83.684723,62.021938 
	C81.141724,65.661469 78.171539,69.276527 74.949326,73.070442 
	C73.630714,72.997238 72.564125,72.745178 71.422394,72.475357 
	C72.010933,70.647675 72.740150,69.159912 72.948288,67.602509 
	C73.858253,60.793636 73.801483,60.798084 80.775581,61.937485 
	C81.584572,62.069660 82.429359,61.982784 83.684723,62.021938 
z"/>
<path fill="#121212" opacity="1.000000" stroke="none" 
	d="
M879.942383,187.713547 
	C881.616577,183.982925 883.498596,180.628479 885.663269,177.082489 
	C886.396118,177.781067 887.126831,178.636307 887.242737,179.568008 
	C887.562866,182.140625 888.672546,185.554199 887.479980,187.097092 
	C886.406128,188.486404 882.696960,187.838882 879.942383,187.713547 
z"/>
<path fill="#121212" opacity="1.000000" stroke="none" 
	d="
M179.104538,333.093506 
	C182.987320,329.310547 187.146515,325.705780 191.626160,321.988281 
	C191.586548,325.372559 191.226471,328.869659 190.727737,333.713257 
	C189.447739,331.584412 188.864716,330.614746 188.274353,329.632874 
	C185.719177,331.840515 183.624954,335.182373 179.104538,333.093506 
z"/>
<path fill="#161616" opacity="1.000000" stroke="none" 
	d="
M313.462585,20.959587 
	C311.531708,25.859791 309.227783,30.775555 306.679077,35.911579 
	C302.677399,29.459415 305.431702,23.186756 313.462585,20.959587 
z"/>
<path fill="#131313" opacity="1.000000" stroke="none" 
	d="
M730.809570,182.802582 
	C734.726501,177.226974 739.031677,171.705185 743.631287,166.016846 
	C744.100220,167.244736 744.925049,169.057037 744.341919,169.964767 
	C740.962280,175.225403 737.828491,180.869766 730.809570,182.802582 
z"/>
<path fill="#181818" opacity="1.000000" stroke="none" 
	d="
M665.020142,150.171417 
	C662.362671,153.963531 659.533875,157.428009 656.396729,161.031891 
	C654.919128,155.700592 659.754089,149.449036 665.020142,150.171417 
z"/>
<path fill="#101010" opacity="1.000000" stroke="none" 
	d="
M71.047844,77.100136 
	C69.635658,79.831596 68.087776,82.210709 66.243683,84.734169 
	C66.104424,80.706345 66.261368,76.534172 66.418312,72.361992 
	C67.003258,72.254486 67.588203,72.146973 68.173141,72.039467 
	C69.086143,73.608902 69.999146,75.178345 71.047844,77.100136 
z"/>
<path fill="#121212" opacity="1.000000" stroke="none" 
	d="
M195.798676,318.503906 
	C198.236496,315.383179 200.739929,312.684387 203.545700,309.830719 
	C203.662354,311.257233 203.918442,313.084900 203.201797,314.370270 
	C201.553406,317.326843 199.431686,320.019501 197.375076,323.003479 
	C197.021881,322.050232 196.443085,320.488037 195.798676,318.503906 
z"/>
<path fill="#131313" opacity="1.000000" stroke="none" 
	d="
M269.772949,92.971336 
	C268.574982,89.724037 267.734924,86.311630 266.811493,82.509689 
	C268.300568,81.837662 269.872986,81.555183 272.279510,81.122871 
	C271.585815,84.894905 270.858337,88.850571 269.772949,92.971336 
z"/>
<path fill="#131313" opacity="1.000000" stroke="none" 
	d="
M721.893311,193.959412 
	C723.447937,191.372543 725.305298,188.906219 727.441162,186.327072 
	C728.483582,186.834595 729.247498,187.454941 729.052490,187.296616 
	C728.661926,190.778854 728.356812,193.499130 728.060242,196.143356 
	C726.110229,195.457199 724.153198,194.768570 721.893311,193.959412 
z"/>
<path fill="#141414" opacity="1.000000" stroke="none" 
	d="
M605.072754,221.314789 
	C603.498840,224.054626 601.762695,226.455292 599.759155,229.018829 
	C598.729675,228.509232 597.203430,227.494080 597.326843,227.218811 
	C598.281677,225.089920 599.296387,222.863434 600.852661,221.187347 
	C601.514099,220.475006 603.517151,221.008377 605.072754,221.314789 
z"/>
<path fill="#161616" opacity="1.000000" stroke="none" 
	d="
M914.009521,130.916351 
	C915.207581,128.626144 916.778320,126.416496 918.641602,124.039413 
	C919.293701,124.933372 919.922791,125.987427 919.951965,127.057838 
	C920.000549,128.838242 919.664307,130.629150 919.490173,132.415634 
	C917.787476,131.942734 916.084778,131.469833 914.009521,130.916351 
z"/>
<path fill="#101010" opacity="1.000000" stroke="none" 
	d="
M209.159622,303.987579 
	C210.236084,301.999725 211.673080,300.084564 213.403015,298.033569 
	C214.719162,300.523865 215.742401,303.149963 216.765625,305.776031 
	C216.253250,306.142914 215.740860,306.509766 215.228470,306.876648 
	C213.325714,305.937836 211.422943,304.999023 209.159622,303.987579 
M214.294724,301.438019 
	C214.012283,301.707703 213.727127,301.974884 213.462357,302.260925 
	C213.455521,302.268311 213.671326,302.481812 213.783264,302.599182 
	C214.065857,302.329102 214.348434,302.059052 214.294724,301.438019 
z"/>
<path fill="#101010" opacity="1.000000" stroke="none" 
	d="
M528.875916,96.818192 
	C529.368408,94.617760 530.328552,92.480904 531.574707,90.154068 
	C536.922668,90.207306 534.472290,93.744812 534.893188,96.881760 
	C532.836670,96.881760 531.090088,96.881760 528.875916,96.818192 
z"/>
<path fill="#161616" opacity="1.000000" stroke="none" 
	d="
M676.751343,253.645157 
	C676.751343,253.645157 676.661865,253.472107 676.744629,253.420471 
	C676.124329,255.595413 675.867432,258.155396 674.547913,259.921417 
	C673.776917,260.953308 671.308289,260.716766 669.236755,260.997406 
	C670.449524,258.637268 672.028931,256.330627 674.533813,253.925934 
	C675.889954,253.766983 676.320679,253.706070 676.751343,253.645157 
z"/>
<path fill="#1A1A1A" opacity="1.000000" stroke="none" 
	d="
M43.892353,333.424927 
	C45.682167,334.798126 47.402214,336.501190 49.246216,338.517242 
	C48.560432,338.936005 47.740948,339.177063 46.942955,339.119598 
	C45.228527,338.996185 43.525177,338.718933 41.817291,338.504669 
	C42.485725,336.921356 43.154156,335.338043 43.892353,333.424927 
z"/>
<path fill="#141414" opacity="1.000000" stroke="none" 
	d="
M657.111206,278.890686 
	C658.542908,276.001526 660.361145,273.126129 662.756348,270.100983 
	C663.534363,269.963013 663.735413,269.974792 663.936523,269.986603 
	C666.084778,273.130066 663.566956,275.086121 662.037354,277.651581 
	C662.000000,278.000000 662.007324,277.992859 662.007324,277.992859 
	C660.504089,278.296722 659.000916,278.600616 657.111206,278.890686 
z"/>
<path fill="#181818" opacity="1.000000" stroke="none" 
	d="
M713.840027,203.823853 
	C715.083557,201.572815 716.719971,199.399597 718.687988,197.184174 
	C719.047424,197.304413 719.068726,197.468307 719.104126,197.629105 
	C719.530945,199.566879 719.959778,201.504227 720.388123,203.441666 
	C718.336365,203.595001 716.284668,203.748322 713.840027,203.823853 
z"/>
<path fill="#1A1A1A" opacity="1.000000" stroke="none" 
	d="
M592.689575,237.864929 
	C591.273499,240.676636 589.529785,243.345062 587.482849,246.176727 
	C585.476074,241.383194 587.981873,237.215927 592.689575,237.864929 
z"/>
<path fill="#171717" opacity="1.000000" stroke="none" 
	d="
M347.003479,66.883865 
	C348.150787,64.488556 349.642761,62.133564 351.428528,59.584236 
	C352.076324,62.449444 352.430328,65.508987 352.822601,68.899475 
	C350.485687,68.056267 348.916931,67.490227 347.003479,66.883865 
z"/>
<path fill="#171717" opacity="1.000000" stroke="none" 
	d="
M243.065872,251.049438 
	C243.723846,248.973648 244.631042,247.038467 245.785797,244.926544 
	C246.777847,245.851486 247.522369,246.953186 248.266891,248.054871 
	C246.579971,249.042557 246.928970,253.245819 243.065872,251.049438 
z"/>
<path fill="#161616" opacity="1.000000" stroke="none" 
	d="
M664.235474,269.853302 
	C663.735413,269.974792 663.534363,269.963013 663.032593,269.922485 
	C663.996826,267.946503 665.261841,265.999298 666.779724,263.894226 
	C668.064453,264.877838 669.096252,266.019287 670.321838,267.375092 
	C667.849426,268.376862 666.191895,269.048431 664.235474,269.853302 
z"/>
<path fill="#121212" opacity="1.000000" stroke="none" 
	d="
M837.927917,193.510529 
	C835.598511,194.619598 833.187256,195.378662 830.388306,196.093582 
	C832.244385,194.077835 833.725708,190.035934 837.927917,193.510529 
z"/>
<path fill="#141414" opacity="1.000000" stroke="none" 
	d="
M525.415283,103.071884 
	C525.511108,102.097740 525.915649,101.183182 526.582031,100.110176 
	C527.484558,102.557976 528.125244,105.164230 528.765991,107.770477 
	C528.252014,107.900719 527.738098,108.030952 527.224182,108.161186 
	C526.724121,106.484612 526.224121,104.808044 525.415283,103.071884 
z"/>
<path fill="#141414" opacity="1.000000" stroke="none" 
	d="
M924.910583,120.641815 
	C926.059937,119.853592 927.225403,119.451439 928.702026,119.086960 
	C928.475037,120.762901 927.936951,122.401184 927.398865,124.039467 
	C926.939575,124.051811 926.480347,124.064163 926.021057,124.076515 
	C925.656250,123.060303 925.291504,122.044090 924.910583,120.641815 
z"/>
<path fill="#141414" opacity="1.000000" stroke="none" 
	d="
M661.996338,278.003510 
	C667.240112,277.944824 662.776489,281.911530 663.436096,283.704681 
	C662.959656,282.056641 662.483215,280.408600 662.007080,278.376709 
	C662.007324,277.992859 662.000000,278.000000 661.996338,278.003510 
z"/>
<path fill="#131313" opacity="1.000000" stroke="none" 
	d="
M734.572632,188.540131 
	C733.600037,187.791916 732.937866,186.899063 732.275696,186.006226 
	C732.967041,185.771210 733.658325,185.536194 734.349670,185.301178 
	C734.527466,186.332611 734.705261,187.364044 734.572632,188.540131 
z"/>
<path fill="#161616" opacity="1.000000" stroke="none" 
	d="
M117.017502,32.725609 
	C116.585632,33.450401 116.150856,33.820213 115.422867,34.241318 
	C114.788780,32.891575 114.447906,31.490547 114.107033,30.089520 
	C114.411514,29.895996 114.715996,29.702475 115.020477,29.508951 
	C115.685188,30.462847 116.349892,31.416740 117.017502,32.725609 
z"/>
<path fill="#121212" opacity="1.000000" stroke="none" 
	d="
M826.326416,194.859222 
	C826.301086,194.221283 826.599121,193.658203 826.897156,193.095123 
	C827.396606,193.363419 827.895996,193.631729 828.395447,193.900055 
	C827.813538,194.244751 827.231628,194.589417 826.326416,194.859222 
z"/>
<path fill="#191919" opacity="1.000000" stroke="none" 
	d="
M778.038330,118.070755 
	C777.981812,117.353546 778.210938,116.798790 778.710571,116.097626 
	C779.492859,117.081818 780.004578,118.212410 780.516296,119.342987 
	C779.785522,118.973053 779.054749,118.603134 778.038330,118.070755 
z"/>
<path fill="#141414" opacity="1.000000" stroke="none" 
	d="
M596.168762,233.220001 
	C595.977600,234.197556 595.373047,235.139954 594.469910,236.241577 
	C594.699341,235.328842 595.227295,234.256851 596.168762,233.220001 
z"/>
<path fill="#161616" opacity="1.000000" stroke="none" 
	d="
M676.744934,252.121399 
	C676.465515,251.860596 676.443481,251.801270 676.392944,251.767090 
	C677.235413,251.525024 678.128418,251.317123 679.021423,251.109222 
	C679.083008,251.385925 679.144653,251.662643 679.206238,251.939362 
	C678.478943,252.086975 677.751648,252.234589 676.744934,252.121399 
z"/>
<path fill="#191919" opacity="1.000000" stroke="none" 
	d="
M774.337585,123.944702 
	C774.466614,123.084435 774.945740,122.173981 775.700928,121.106094 
	C775.547241,121.930618 775.117493,122.912575 774.337585,123.944702 
z"/>
<path fill="#121212" opacity="1.000000" stroke="none" 
	d="
M829.618530,190.544876 
	C830.058777,190.659042 830.325806,190.938293 830.592834,191.217529 
	C830.476868,191.327469 830.266357,191.539688 830.258667,191.532578 
	C829.975891,191.270996 829.711914,190.989105 829.618530,190.544876 
z"/>
<path fill="#161616" opacity="1.000000" stroke="none" 
	d="
M315.614716,17.009525 
	C315.685242,17.522007 315.475464,18.055777 315.028564,18.769958 
	C314.972382,18.310518 315.153381,17.670666 315.614716,17.009525 
z"/>
<path fill="#161616" opacity="1.000000" stroke="none" 
	d="
M402.446655,144.537033 
	C402.411255,144.477554 402.482025,144.596512 402.446655,144.537033 
z"/>
<path fill="#161616" opacity="1.000000" stroke="none" 
	d="
M401.456451,142.533295 
	C401.427185,142.482269 401.485718,142.584335 401.456451,142.533295 
z"/>
<path fill="#161616" opacity="1.000000" stroke="none" 
	d="
M112.469574,32.449486 
	C112.521591,32.418510 112.417557,32.480465 112.469574,32.449486 
z"/>
<path fill="#161616" opacity="1.000000" stroke="none" 
	d="
M112.471893,29.458298 
	C112.522507,29.428850 112.421272,29.487747 112.471893,29.458298 
z"/>
<path fill="#020202" opacity="1.000000" stroke="none" 
	d="
M117.011795,301.097107 
	C113.918274,304.723511 111.219696,308.814270 107.634918,311.863037 
	C102.753204,316.014771 97.499641,319.955841 91.840858,322.903137 
	C86.262115,325.808777 81.477417,323.713745 78.414749,318.185272 
	C73.542671,309.390533 73.079475,299.679443 73.608238,290.022583 
	C74.810234,268.070404 81.133827,247.155762 87.681770,226.376083 
	C101.486496,182.567230 118.592934,140.096252 140.562134,99.690567 
	C149.469437,83.308273 159.053375,67.303947 172.219910,53.885807 
	C175.779694,50.258007 179.988281,47.002399 184.443375,44.574936 
	C192.653503,40.101448 198.186020,42.312031 202.124298,50.772297 
	C206.099976,59.312901 206.526962,68.447014 206.390808,77.622917 
	C205.885696,111.664558 197.466614,144.103958 185.978348,175.845474 
	C172.223816,213.848633 154.405258,249.829956 131.409302,283.152008 
	C129.001068,286.641602 126.404663,290.001373 123.479919,293.328552 
	C119.612686,293.281128 117.928925,294.445831 120.039597,298.012939 
	C119.796379,298.446259 119.553169,298.879578 118.852989,299.266388 
	C117.934608,299.845612 117.473198,300.471375 117.011795,301.097107 
z"/>
<path fill="#141414" opacity="1.000000" stroke="none" 
	d="
M120.332443,297.922668 
	C117.928925,294.445831 119.612686,293.281128 123.177765,293.578979 
	C122.402603,295.225616 121.513947,296.528992 120.332443,297.922668 
z"/>
<path fill="#141414" opacity="1.000000" stroke="none" 
	d="
M117.356720,301.127014 
	C117.473198,300.471375 117.934608,299.845612 118.619919,299.366791 
	C118.463097,300.061462 118.082375,300.609192 117.356720,301.127014 
z"/>
<path fill="#010101" opacity="1.000000" stroke="none" 
	d="
M676.595459,253.157227 
	C676.320679,253.706070 675.889954,253.766983 674.805176,253.781845 
	C674.913818,253.380280 675.676697,253.024780 676.595459,253.157227 
z"/>
<path fill="#010101" opacity="1.000000" stroke="none" 
	d="
M214.462860,301.613525 
	C214.348434,302.059052 214.065857,302.329102 213.783264,302.599182 
	C213.671326,302.481812 213.455521,302.268311 213.462357,302.260925 
	C213.727127,301.974884 214.012283,301.707703 214.462860,301.613525 
z"/>
</svg>